<svg xmlns="http://www.w3.org/2000/svg" xmlns:xlink="http://www.w3.org/1999/xlink" aria-hidden="true" role="img" class="iconify iconify--la" width="32" height="32" preserveAspectRatio="xMidYMid meet" viewBox="0 0 32 32"><path fill="#888888" d="m16 3.031l-.719.719l-2.187 2.219l-2.188.687l-.906.282l.219.906l1.187 4.812l-1.719-1.187L9 11l-2.219 2.219l-2.937 1.312l-.875.406l.344.876l1.124 2.843l-.312 2.375l-.125 1l7 .875V25h4v4h2v-4h4v-2.094l7-.875l-.125-1l-.313-2.375l1.125-2.843l.344-.876l-.875-.406l-2.937-1.312L23 11l-.688.469l-1.718 1.187l1.187-4.812l.219-.907l-.906-.28l-2.188-.688L16.72 3.75zm0 2.844l1.875 1.875l.219.063l1.531.468l-1.594 6.469l-.625 2.594l2.157-1.532l3.187-2.218l1.156 1.187l.157.125l.156.094l2.25 1l-.844 2.156l-.094.25l.032.25l.187 1.625l-5.875.719l-.875.125V23h-6v-1.875L12.125 21l-5.875-.719l.188-1.625l.03-.25l-.093-.25L5.531 16l2.25-1l.157-.094l.156-.125l1.156-1.187l3.188 2.219l2.156 1.53l-.625-2.593l-1.594-6.469l1.531-.469l.219-.062z"></path></svg>